<?xml version="1.0" encoding="UTF-8" standalone="no"?>
<svg
   version="1.1"
   viewBox="0 0 32 32"
   id="svg26"
   sodipodi:docname="bell.svg"
   inkscape:version="1.2.2 (b0a8486541, 2022-12-01)"
   xmlns:inkscape="http://www.inkscape.org/namespaces/inkscape"
   xmlns:sodipodi="http://sodipodi.sourceforge.net/DTD/sodipodi-0.dtd"
   xmlns="http://www.w3.org/2000/svg"
   xmlns:svg="http://www.w3.org/2000/svg">
  <defs
     id="defs30" />
  <sodipodi:namedview
     id="namedview28"
     pagecolor="#ffffff"
     bordercolor="#666666"
     borderopacity="1.0"
     inkscape:showpageshadow="2"
     inkscape:pageopacity="0.0"
     inkscape:pagecheckerboard="0"
     inkscape:deskcolor="#d1d1d1"
     showgrid="false"
     inkscape:zoom="31.46875"
     inkscape:cx="15.729891"
     inkscape:cy="16.095333"
     inkscape:current-layer="svg26" />
  <linearGradient
     id="a"
     x1="22"
     x2="22"
     y1="29.999999"
     y2="22.999999"
     gradientTransform="translate(-5.5)"
     gradientUnits="userSpaceOnUse">
    <stop
       stop-color="#82868d"
       offset="0"
       id="stop2"
       style="stop-color:#ab6508;stop-opacity:1;" />
    <stop
       stop-color="#d9dada"
       offset="1"
       id="stop4"
       style="stop-color:#dadad9;stop-opacity:1;" />
  </linearGradient>
  <linearGradient
     id="b"
     x1="16"
     x2="16"
     y1="26"
     y2="1.411719"
     gradientTransform="matrix(1 0 0 .97607473 -1e-6 .598619)"
     gradientUnits="userSpaceOnUse">
    <stop
       stop-color="#f79f06"
       offset="0"
       id="stop7"
       style="stop-color:#f70606;stop-opacity:1;" />
    <stop
       stop-color="#eeab32"
       offset="0.0427864"
       id="stop9"
       style="stop-color:#ee3251;stop-opacity:1;" />
    <stop
       stop-color="#e18f00"
       offset="0.16666667"
       id="stop11"
       style="stop-color:#e1004b;stop-opacity:1;" />
    <stop
       stop-color="#f8c468"
       offset="0.80145305"
       id="stop13"
       style="stop-color:#f868b0;stop-opacity:1;" />
    <stop
       stop-color="#ffc35a"
       offset="1"
       id="stop15"
       style="stop-color:#ff5ac8;stop-opacity:1;" />
  </linearGradient>
  <circle
     cx="15.999998"
     cy="26.5"
     r="3.5"
     fill="url(#a)"
     id="circle18" />
  <path
     d="m16 2c-1.984375 0-3.5 1.5468495-3.5 3.4765625-.000217.166748.014159.3590775.042969.5234375-3.6145912 1.227326-4.538666 4.528186-4.542969 8.263672 0 4.880374-4 8.784177-6 10.736328v1h14 14v-1c-2-1.95215-6-5.855954-6-10.736328-.0043-3.735486-.928379-7.036346-4.542969-8.263672.02881-.16436.043189-.3566895.042969-.5234375 0-1.929713-1.515625-3.4765625-3.5-3.4765625z"
     fill="url(#b)"
     id="path20" />
  <path
     d="m2 25h28v.999999h-28z"
     opacity=".15"
     id="path22" />
  <path
     d="m12.546875 5c-.021126.1573019-.046875.313055-.046875.4765625-.000217.166748.014159.3590775.042969.5234375h6.914062c.02881-.16436.043189-.3566895.042969-.5234375 0-.1635075-.025749-.3192606-.046875-.4765625z"
     opacity=".15"
     id="path24" />
</svg>
